<?xml version="1.0" encoding="utf-8"?>
<!-- Generator: Adobe Illustrator 15.1.0, SVG Export Plug-In . SVG Version: 6.00 Build 0)  -->
<!DOCTYPE svg PUBLIC "-//W3C//DTD SVG 1.1//EN" "http://www.w3.org/Graphics/SVG/1.1/DTD/svg11.dtd">
<svg version="1.1" id="color2" xmlns="http://www.w3.org/2000/svg" xmlns:xlink="http://www.w3.org/1999/xlink" x="0px" y="0px"
	 width="612px" height="792px" viewBox="0 0 612 792" enable-background="new 0 0 612 792" xml:space="preserve">
<rect x="4" y="5.049" fill="#6C5E4E" width="608" height="763.952"/>
<g>
	<g>
		<path fill="#429398" d="M162.022,407.768c3.07-0.006,6.216,0.595,9.081,1.851c2.873,1.248,5.466,3.13,7.587,5.432
			c4.251,4.613,6.701,10.771,6.922,17.069c0.106,3.148-0.368,6.354-1.527,9.351c-1.149,2.994-3.02,5.753-5.436,7.92
			c-2.413,2.176-5.327,3.734-8.363,4.708c-3.037,0.98-6.216,1.417-9.315,1.489c-3.159,0.079-6.323-0.239-9.424-1.056
			c-3.092-0.813-6.083-2.161-8.744-4.009c-5.366-3.693-9.158-9.348-11.125-15.401c-1.992-6.078-2.354-12.59-1.29-18.859
			c1.073-6.263,3.625-12.373,7.773-17.412c2.068-2.514,4.535-4.736,7.306-6.514c2.768-1.781,5.834-3.102,9.004-3.936
			c3.147-0.843,6.492-1.185,9.611-1.163c3.261,0.009,6.438,0.352,9.612,1.094c6.327,1.453,12.335,4.616,17.133,9.054
			c4.818,4.428,8.452,9.986,10.871,15.938c2.43,5.961,3.703,12.333,3.892,18.735c0.184,6.403-0.724,12.869-2.845,19.015
			c-2.118,6.134-5.511,11.957-10.171,16.726c-4.639,4.778-10.533,8.382-16.839,10.43c-3.152,1.031-6.394,1.711-9.639,2.072
			c-1.623,0.182-3.247,0.288-4.866,0.329l-1.217,0.021l-1.167-0.002c-0.814-0.006-1.592-0.026-2.391-0.057
			c-6.346-0.251-12.774-1.308-18.938-3.484c-6.157-2.16-12.019-5.481-17.009-9.854c-5.002-4.36-9.098-9.727-12.096-15.579
			c-6.018-11.758-7.784-25.153-6.239-37.943c1.571-12.805,6.48-25.32,14.775-35.592c4.146-5.115,9.153-9.617,14.814-13.149
			c5.655-3.539,11.949-6.076,18.434-7.513c3.242-0.722,6.529-1.178,9.813-1.392c1.624-0.11,3.326-0.152,4.88-0.147
			c1.657,0.003,3.248,0.054,4.873,0.154c6.469,0.394,12.98,1.591,19.237,3.75c6.254,2.15,12.232,5.271,17.576,9.242
			c5.353,3.963,10.061,8.751,13.993,14.046c7.882,10.622,12.667,23.1,14.815,35.812c2.167,12.736,1.773,25.846-1.188,38.481
			c-2.969,12.606-8.605,24.854-17.26,35.083c-4.317,5.098-9.361,9.671-15.001,13.412c-5.632,3.75-11.836,6.66-18.275,8.643
			c-6.441,1.99-13.099,3.068-19.704,3.387c-0.826,0.039-1.651,0.069-2.476,0.086l-2.379,0.023c-1.692-0.003-3.255-0.038-4.88-0.104
			c-3.226-0.131-6.46-0.409-9.691-0.827c-12.896-1.711-25.826-5.988-37.117-13.234c-11.285-7.222-20.774-17.197-27.546-28.553
			c-6.792-11.367-11.158-23.915-13.295-36.676c-2.118-12.777-2.149-25.772-0.297-38.472c1.92-12.687,5.723-25.104,11.51-36.631
			c5.812-11.491,13.611-22.14,23.385-30.777c9.738-8.648,21.391-15.202,33.791-18.945c6.195-1.878,12.552-3.115,18.924-3.684
			c3.176-0.284,6.396-0.406,9.527-0.399l8.962,0.023c11.951,0.06,23.906,0.087,35.866,0.342c11.959,0.246,23.921,0.586,35.849,0.991
			c23.845,0.946,47.672,1.531,71.561,2.324l0.041,1.8c-23.818,1.925-47.71,3.162-71.586,4.099
			c-23.855,0.821-47.616,1.924-71.432,3.101l-8.928,0.462c-2.833,0.149-5.571,0.405-8.321,0.802
			c-5.482,0.769-10.854,2.022-16.006,3.833c-10.313,3.598-19.696,9.424-27.5,16.95c-7.82,7.512-14.157,16.603-18.772,26.555
			c-4.653,9.936-7.676,20.691-9.041,31.629c-1.419,10.931-1.198,22.08,0.762,32.817c1.94,10.729,5.552,21.099,11.061,30.203
			c5.468,9.111,12.741,16.977,21.528,22.698c8.744,5.778,18.897,9.475,29.603,11.102c2.675,0.417,5.382,0.726,8.113,0.908
			c1.353,0.092,2.771,0.159,4.062,0.197l2.094,0.035l1.997-0.016c5.313-0.114,10.545-0.833,15.547-2.232
			c10.009-2.768,19.045-8.41,25.988-16.301c6.97-7.862,11.882-17.754,14.601-28.282c2.722-10.538,3.315-21.744,1.71-32.567
			c-1.63-10.807-5.507-21.275-11.73-29.955c-6.186-8.698-14.814-15.399-24.829-18.999c-4.996-1.82-10.305-2.907-15.734-3.332
			c-1.351-0.108-2.74-0.174-4.066-0.2c-1.428-0.028-2.71-0.016-4.063,0.051c-2.67,0.128-5.315,0.45-7.905,0.981
			c-5.181,1.058-10.144,2.963-14.653,5.676c-4.511,2.708-8.566,6.213-12.002,10.306c-6.908,8.171-11.331,18.617-12.877,29.437
			c-1.547,10.807-0.225,22.134,4.478,31.777c2.341,4.812,5.529,9.161,9.451,12.729c3.915,3.575,8.556,6.355,13.613,8.252
			c5.057,1.908,10.51,2.945,16.071,3.28c0.69,0.041,1.404,0.074,2.081,0.094l1.07,0.023l1.02,0.004
			c1.363-0.006,2.719-0.066,4.063-0.188c2.688-0.242,5.326-0.744,7.861-1.514c5.078-1.52,9.719-4.211,13.494-7.902
			c3.782-3.685,6.681-8.333,8.579-13.422c3.789-10.192,3.733-22.046-0.153-32.331c-1.944-5.137-4.901-9.869-8.79-13.622
			c-3.88-3.758-8.706-6.462-13.979-7.816c-2.619-0.686-5.404-1.05-8.106-1.125c-2.841-0.086-5.489,0.139-8.126,0.766
			c-5.237,1.216-9.993,4.106-13.527,8.226c-7.106,8.246-9.436,20.671-6.261,31.283c1.588,5.3,4.694,10.137,9.123,13.349
			c4.4,3.253,10.015,4.726,15.637,4.718c2.86,0.015,5.663-0.303,8.332-1.08c2.66-0.771,5.156-2.026,7.232-3.794
			c2.077-1.762,3.718-4.025,4.78-6.57c1.069-2.544,1.575-5.345,1.559-8.154c-0.031-5.622-2.096-11.309-5.827-15.583
			c-1.861-2.138-4.151-3.9-6.72-5.104c-2.572-1.211-5.39-1.844-8.282-1.922L162.022,407.768z"/>
	</g>
	<g>
		<path fill="#429398" d="M468.395,409.567c-2.893,0.077-5.711,0.711-8.282,1.922c-2.569,1.203-4.858,2.966-6.72,5.103
			c-3.731,4.275-5.796,9.961-5.827,15.584c-0.017,2.81,0.49,5.61,1.559,8.153c1.062,2.545,2.702,4.81,4.78,6.571
			c2.075,1.768,4.57,3.022,7.231,3.794c2.669,0.777,5.472,1.095,8.332,1.08c5.622,0.008,11.237-1.465,15.637-4.719
			c4.429-3.211,7.535-8.049,9.123-13.349c3.176-10.611,0.846-23.036-6.26-31.282c-3.534-4.12-8.29-7.011-13.527-8.227
			c-2.637-0.627-5.285-0.852-8.126-0.766c-2.702,0.074-5.488,0.438-8.106,1.124c-5.274,1.354-10.1,4.058-13.979,7.816
			c-3.889,3.752-6.846,8.484-8.79,13.622c-3.887,10.285-3.942,22.138-0.153,32.331c1.897,5.089,4.796,9.736,8.578,13.421
			c3.775,3.692,8.417,6.384,13.494,7.902c2.535,0.771,5.173,1.272,7.861,1.515c1.345,0.122,2.701,0.183,4.063,0.188l1.021-0.004
			l1.069-0.023c0.677-0.02,1.39-0.053,2.081-0.094c5.561-0.335,11.014-1.372,16.07-3.279c5.058-1.897,9.698-4.678,13.613-8.253
			c3.922-3.568,7.109-7.918,9.451-12.729c4.702-9.643,6.025-20.97,4.478-31.777c-1.546-10.819-5.969-21.265-12.877-29.436
			c-3.436-4.093-7.491-7.598-12.002-10.306c-4.51-2.713-9.472-4.618-14.653-5.676c-2.59-0.531-5.234-0.853-7.905-0.981
			c-1.354-0.067-2.635-0.079-4.063-0.051c-1.326,0.026-2.716,0.092-4.066,0.2c-5.43,0.424-10.738,1.511-15.734,3.332
			c-10.015,3.6-18.643,10.3-24.829,18.999c-6.224,8.68-10.101,19.147-11.73,29.955c-1.605,10.823-1.012,22.029,1.71,32.567
			c2.719,10.528,7.631,20.42,14.601,28.282c6.942,7.891,15.979,13.534,25.988,16.302c5.001,1.399,10.233,2.118,15.546,2.232
			l1.997,0.016l2.094-0.035c1.291-0.038,2.709-0.105,4.062-0.197c2.731-0.183,5.438-0.491,8.113-0.908
			c10.705-1.627,20.858-5.323,29.603-11.101c8.787-5.722,16.061-13.587,21.528-22.699c5.509-9.104,9.121-19.474,11.062-30.203
			c1.96-10.737,2.181-21.887,0.762-32.816c-1.364-10.939-4.388-21.694-9.04-31.63c-4.615-9.952-10.952-19.043-18.771-26.555
			c-7.805-7.527-17.188-13.353-27.5-16.951c-5.151-1.811-10.524-3.063-16.006-3.833c-2.75-0.397-5.489-0.653-8.321-0.802
			l-8.928-0.462c-23.815-1.177-47.576-2.28-71.432-3.101c-23.876-0.937-47.769-2.173-71.587-4.099l0.041-1.8
			c23.889-0.793,47.716-1.378,71.561-2.324c11.929-0.405,23.89-0.745,35.85-0.991c11.96-0.254,23.915-0.282,35.866-0.342
			l8.962-0.023c3.131-0.007,6.351,0.115,9.527,0.399c6.371,0.569,12.729,1.806,18.923,3.684c12.4,3.743,24.053,10.298,33.791,18.946
			c9.773,8.637,17.572,19.286,23.384,30.777c5.787,11.528,9.59,23.944,11.51,36.632c1.852,12.699,1.82,25.694-0.298,38.471
			c-2.137,12.761-6.503,25.31-13.295,36.676c-6.772,11.356-16.263,21.331-27.547,28.554c-11.291,7.245-24.221,11.522-37.116,13.233
			c-3.231,0.418-6.467,0.696-9.692,0.827c-1.625,0.066-3.188,0.102-4.88,0.104l-2.38-0.023c-0.824-0.017-1.65-0.047-2.476-0.086
			c-6.605-0.318-13.264-1.396-19.704-3.387c-6.439-1.982-12.644-4.893-18.275-8.643c-5.64-3.741-10.684-8.315-15.001-13.413
			c-8.654-10.229-14.29-22.477-17.26-35.083c-2.96-12.636-3.354-25.746-1.187-38.481c2.147-12.713,6.933-25.19,14.814-35.812
			c3.933-5.295,8.641-10.083,13.993-14.046c5.345-3.97,11.322-7.091,17.577-9.241c6.256-2.159,12.768-3.356,19.236-3.75
			c1.625-0.101,3.216-0.151,4.873-0.154c1.554-0.004,3.256,0.038,4.879,0.147c3.285,0.214,6.572,0.67,9.814,1.393
			c6.483,1.437,12.778,3.974,18.433,7.513c5.662,3.531,10.669,8.034,14.815,13.149c8.294,10.271,13.204,22.787,14.774,35.591
			c1.545,12.791-0.222,26.187-6.239,37.944c-2.998,5.852-7.094,11.219-12.097,15.579c-4.99,4.373-10.852,7.693-17.009,9.854
			c-6.164,2.178-12.592,3.233-18.938,3.484c-0.799,0.03-1.576,0.051-2.391,0.057l-1.167,0.002l-1.216-0.021
			c-1.619-0.041-3.244-0.147-4.866-0.329c-3.245-0.362-6.487-1.042-9.639-2.072c-6.307-2.048-12.2-5.652-16.839-10.431
			c-4.66-4.769-8.054-10.592-10.172-16.726c-2.12-6.146-3.028-12.611-2.844-19.015c0.189-6.402,1.462-12.774,3.893-18.735
			c2.419-5.951,6.053-11.509,10.871-15.938c4.798-4.438,10.807-7.601,17.134-9.054c3.174-0.741,6.351-1.084,9.611-1.093
			c3.119-0.021,6.464,0.32,9.611,1.163c3.17,0.834,6.235,2.155,9.004,3.936c2.771,1.778,5.237,4.001,7.305,6.514
			c4.148,5.04,6.7,11.15,7.773,17.412c1.064,6.271,0.702,12.781-1.29,18.86c-1.968,6.054-5.76,11.708-11.126,15.401
			c-2.661,1.848-5.651,3.195-8.743,4.009c-3.101,0.816-6.265,1.135-9.424,1.056c-3.1-0.072-6.278-0.509-9.315-1.489
			c-3.036-0.974-5.95-2.532-8.363-4.709c-2.416-2.166-4.287-4.925-5.436-7.919c-1.159-2.997-1.634-6.202-1.527-9.352
			c0.221-6.298,2.671-12.455,6.922-17.068c2.121-2.302,4.714-4.184,7.587-5.432c2.864-1.257,6.011-1.856,9.08-1.851L468.395,409.567
			z"/>
	</g>
</g>
<g>
	<path fill="#429398" d="M321.517,94.267c-1.865,2.493-4.688,4.484-7.923,5.094c-3.201,0.635-6.764-0.062-9.438-2.254
		c-1.33-1.085-2.397-2.557-2.991-4.216c-0.604-1.657-0.723-3.459-0.481-5.146c0.509-3.409,2.209-6.3,4.188-8.787
		c2.02-2.497,4.72-4.695,8.017-5.801c3.276-1.129,7.028-0.988,10.25,0.35c3.237,1.317,5.979,3.703,7.805,6.678
		c1.837,2.97,2.713,6.572,2.441,10.09c-0.249,3.528-1.596,6.865-3.475,9.658c-1.862,2.747-4.157,5.213-7.01,7.161
		c-2.832,1.939-6.202,3.265-9.719,3.663c-3.513,0.414-7.122-0.078-10.412-1.356c-3.293-1.275-6.289-3.322-8.686-5.976
		c-2.398-2.646-4.183-5.926-5.049-9.475c-0.879-3.546-0.809-7.306,0.028-10.772c0.83-3.48,2.367-6.665,4.243-9.484
		c0.47-0.706,0.967-1.389,1.478-2.051l0.338-0.441l0.398-0.497l0.793-0.96c1.06-1.252,2.201-2.457,3.42-3.606
		c2.444-2.29,5.245-4.341,8.416-5.895c3.164-1.551,6.71-2.578,10.373-2.819c3.659-0.247,7.396,0.297,10.84,1.555
		c6.922,2.519,12.55,7.728,15.948,14.049c3.443,6.322,4.617,13.865,3.398,20.947c-1.187,7.092-4.69,13.578-8.981,18.684
		c-4.275,5.185-9.78,9.774-16.442,12.568c-6.624,2.814-14.261,3.591-21.373,2.116c-7.13-1.438-13.711-4.923-18.988-9.808
		c-5.293-4.867-9.328-11.214-11.358-18.295c-2.075-7.061-2.031-14.783-0.077-21.783c0.966-3.503,2.342-6.845,4.027-9.948
		c0.841-1.553,1.754-3.051,2.727-4.493c0.486-0.721,0.988-1.427,1.501-2.12c0.628-0.825,0.867-1.167,1.49-1.942
		c2.138-2.698,4.365-5.144,6.879-7.513c2.505-2.344,5.237-4.53,8.211-6.458c5.953-3.815,12.941-6.577,20.31-7.442
		c7.354-0.861,14.946,0.077,21.784,2.696c6.845,2.617,13.004,6.696,18.036,11.806c5.041,5.108,8.976,11.24,11.552,17.903
		c2.552,6.67,3.727,13.875,3.375,20.964c-0.367,7.088-2.195,14.004-5.146,20.194c-1.477,3.096-3.202,6.028-5.118,8.778
		c-0.966,1.379-1.95,2.689-3.025,4.001c-0.439,0.525-1.039,1.25-1.555,1.835c-0.529,0.611-1.069,1.21-1.612,1.805
		c-4.349,4.758-9.167,8.918-14.101,12.647c-4.936,3.733-10.001,7.047-14.85,10.283c-4.811,3.235-9.5,6.484-12.68,10.331
		c-1.597,1.908-2.737,3.964-3.251,6.271c-0.529,2.303-0.377,4.873,0.201,7.506c0.585,2.634,1.636,5.286,2.885,7.875
		c1.229,2.611,2.707,5.146,4.244,7.671l-1.414,1.113c-4.192-4.303-8.157-9.008-10.768-14.983c-1.295-2.973-2.104-6.402-1.907-10
		c0.174-3.598,1.458-7.142,3.225-10.099c1.78-2.979,3.971-5.462,6.181-7.749c2.225-2.276,4.515-4.348,6.781-6.353
		c2.262-2.012,4.534-3.918,6.741-5.834c2.208-1.913,4.351-3.838,6.429-5.773c4.146-3.883,7.94-7.931,11.242-12.234l1.208-1.63
		c0.415-0.569,0.719-1.018,1.175-1.674c0.704-1.057,1.428-2.171,2.075-3.277c1.304-2.226,2.413-4.521,3.31-6.855
		c3.636-9.315,3.544-19.404-0.324-28.042c-3.766-8.623-11.041-15.776-19.545-18.957c-8.482-3.286-17.876-2.462-26.11,2.393
		c-2.07,1.186-4.071,2.605-5.984,4.208c-1.894,1.592-3.77,3.445-5.416,5.307c-0.335,0.356-1.01,1.18-1.301,1.518
		c-0.395,0.477-0.779,0.959-1.149,1.448c-0.74,0.977-1.426,1.977-2.054,2.998c-1.258,2.041-2.267,4.167-2.992,6.345
		c-1.44,4.35-1.724,8.931-0.653,13.315c1.058,4.374,3.423,8.521,6.726,11.811c3.3,3.287,7.508,5.694,11.977,6.758
		c4.472,1.083,9.167,0.791,13.528-0.864c4.368-1.642,8.403-4.657,11.787-8.483c1.749-1.968,3.166-3.916,4.327-6.065
		c1.151-2.126,1.993-4.365,2.47-6.655c0.986-4.565,0.448-9.4-1.599-13.604c-2.017-4.2-5.541-7.695-9.728-9.42
		c-4.183-1.758-8.94-1.651-13.337,0.297c-2.2,0.962-4.31,2.345-6.261,4.024c-0.974,0.844-1.915,1.753-2.812,2.727l-0.654,0.726
		l-0.313,0.356l-0.356,0.427c-0.416,0.494-0.814,0.994-1.187,1.506c-3.039,4.055-4.609,8.831-3.719,13.33
		c0.819,4.485,4.154,8.57,8.56,10.507c2.188,0.979,4.606,1.433,6.995,1.273c2.393-0.151,4.748-0.924,6.874-2.225
		c2.123-1.288,4.045-3.136,5.608-5.216c1.523-2.043,2.559-4.352,2.85-6.744c0.303-2.385-0.158-4.849-1.332-6.99
		c-1.166-2.138-3.03-3.933-5.244-4.962c-2.211-1.041-4.747-1.274-7.126-0.593c-2.39,0.664-4.583,2.217-6.387,4.219
		c-1.815,2.018-3.321,4.379-3.822,6.852c-0.529,2.456,0.169,5.004,2.041,6.697c1.837,1.708,4.597,2.479,7.22,2.107
		c2.648-0.349,5.11-1.825,6.915-3.965L321.517,94.267z"/>
</g>
<g>
	<path fill="#429398" d="M180.1,581.5c-1.423-5.542-2.496-11.083-3.6-16.625c-1.074-5.542-1.974-11.083-2.7-16.625
		c-0.357-2.771-1.134-5.542-1.71-8.313c-0.575-2.771-0.636-5.542-0.09-8.313c0.521-2.771,1.387-5.542,2.64-8.313
		c1.289-2.771,2.878-5.542,5.46-8.313h1.8c2.582,2.771,4.172,5.542,5.46,8.313c1.252,2.771,2.119,5.542,2.64,8.313
		c0.546,2.771,0.485,5.542-0.09,8.313c-0.576,2.771-1.353,5.542-1.71,8.313c-0.727,5.542-1.626,11.083-2.7,16.625
		c-1.104,5.542-2.177,11.083-3.6,16.625H180.1z"/>
</g>
<g>
	<path fill="#429398" d="M206.433,587.078c-1.423-6.673-2.497-13.347-3.6-20.02c-1.074-6.673-1.974-13.347-2.7-20.02
		c-0.357-3.337-1.134-6.673-1.71-10.01c-0.58-3.337-0.627-6.673-0.09-10.01c0.521-3.337,1.387-6.673,2.64-10.01
		c1.289-3.337,2.878-6.673,5.46-10.01h1.8c2.582,3.337,4.172,6.673,5.46,10.01c1.252,3.337,2.119,6.673,2.64,10.01
		c0.538,3.337,0.49,6.673-0.09,10.01c-0.576,3.337-1.353,6.673-1.71,10.01c-0.727,6.673-1.626,13.347-2.7,20.02
		c-1.104,6.673-2.177,13.347-3.6,20.02H206.433z"/>
</g>
<g>
	<path fill="#429398" d="M232.1,592c-1.274-8.936-2.297-17.871-3.286-26.808c-0.985-8.936-1.873-17.871-2.574-26.807
		c-0.354-4.469-0.653-8.937-1.259-13.404c-0.571-4.468-1.255-8.936-1.344-13.403c-0.114-4.468,0.331-8.936,1.008-13.404
		c0.71-4.468,1.637-8.936,2.991-13.403l0.104,1.051c0.061-0.063,0.077-0.318,0.107-0.494l0.066-0.601l0.11-1.239
		c0.045-0.827,0.098-1.668,0.087-2.479c0-0.815-0.036-1.61-0.144-2.358c-0.122-0.748-0.25-1.462-0.801-2.1l0.336-1.768
		c1.305-0.285,2.758,0.187,3.867,0.826c1.137,0.652,2.076,1.472,2.912,2.326c0.822,0.865,1.563,1.768,2.204,2.713
		c0.322,0.473,0.644,0.948,0.93,1.442l0.423,0.756c0.142,0.278,0.266,0.479,0.421,0.873l-0.931-2.365l1.035,3.416
		c1.354,4.468,2.281,8.936,2.991,13.403c0.677,4.469,1.123,8.937,1.008,13.404c-0.089,4.468-0.773,8.936-1.344,13.403
		c-0.606,4.468-0.904,8.936-1.259,13.404c-0.701,8.936-1.588,17.871-2.574,26.807c-0.989,8.937-2.012,17.872-3.286,26.808H232.1z"/>
</g>
<g>
	<path fill="#429398" d="M264.767,596.59c-1.19-9.541-2.185-19.082-3.109-28.623c-0.94-9.541-1.812-19.082-2.496-28.623
		c-0.36-4.771-0.622-9.541-1.047-14.312c-0.454-4.771-1.099-9.541-1.527-14.312c-0.858-9.541,0.236-19.082,2.059-28.623l0.029,0.646
		c0.021,0.158,0.023,0.118,0.031,0.153c0.007,0.013,0.014,0.024,0.019,0.026c0.012,0.011,0.021,0.009,0.03,0.003
		c0.019-0.01,0.034-0.037,0.048-0.067c0.025-0.063,0.058-0.146,0.079-0.235c0.046-0.179,0.076-0.382,0.093-0.588
		c0.028-0.411,0.023-0.845-0.015-1.283c-0.1-0.866-0.354-1.77-0.964-2.701c-0.609-0.915-1.573-1.855-2.836-2.65
		c-1.255-0.813-2.769-1.524-4.427-2.189l-0.136-1.795c1.65-0.914,3.48-1.576,5.505-1.861c2.012-0.275,4.264-0.182,6.525,0.581
		c2.26,0.739,4.484,2.174,6.21,4.082c0.879,0.944,1.632,2,2.26,3.136c0.316,0.568,0.605,1.155,0.865,1.778
		c0.128,0.313,0.257,0.632,0.365,0.977l0.161,0.544l0.078,0.311l0.04,0.181c0.015,0.087,0.023,0.099,0.049,0.309l0.166,1.356
		l-0.136-0.711c1.822,9.541,2.917,19.082,2.059,28.623c-0.428,4.771-1.073,9.541-1.527,14.312
		c-0.425,4.771-0.687,9.541-1.047,14.312c-0.685,9.541-1.556,19.082-2.496,28.623c-0.924,9.541-1.918,19.082-3.109,28.623H264.767z"
		/>
</g>
<g>
	<path fill="#429398" d="M441.767,581.529c-1.617-5.968-2.884-11.947-4.182-17.926c-1.268-5.979-2.361-11.964-3.281-17.954
		c-0.455-2.995-1.329-5.977-2.001-8.965c-0.672-2.989-0.83-5.994-0.382-9.019c0.423-3.023,1.192-6.059,2.347-9.105
		c1.19-3.049,2.683-6.107,5.166-9.197l1.799-0.059c2.678,2.924,4.364,5.879,5.749,8.845c1.35,2.966,2.313,5.945,2.93,8.936
		c0.644,2.989,0.68,5.998,0.202,9.023s-1.157,6.058-1.418,9.076c-0.531,6.037-1.236,12.08-2.115,18.129
		c-0.908,6.049-1.786,12.098-3.015,18.157L441.767,581.529z"/>
</g>
<g>
	<path fill="#429398" d="M403.433,590c-1.423-8.571-2.496-17.143-3.6-25.714c-1.074-8.572-1.974-17.144-2.7-25.715
		c-0.357-4.286-1.135-8.571-1.71-12.857c-0.58-4.285-0.627-8.571-0.09-12.856c0.523-4.286,1.391-8.572,2.64-12.857
		c0.64-2.143,1.366-4.286,2.246-6.429c0.441-1.423,1.077-2.898,2.223-4.222c0.572-0.659,1.33-1.312,2.273-1.662
		c0.949-0.344,1.938-0.279,2.619,0.079l-0.002,1.801c-0.389,0.358-0.483,0.727-0.382,1.051c0.081,0.296,0.237,0.575,0.376,0.889
		c0.3,0.651,0.656,1.352,1.121,2.064c0.88,2.143,1.606,4.286,2.246,6.429c1.249,4.285,2.116,8.571,2.64,12.857
		c0.537,4.285,0.49,8.571-0.09,12.856c-0.575,4.286-1.353,8.571-1.71,12.857c-0.727,8.571-1.626,17.143-2.7,25.715
		c-1.104,8.571-2.177,17.143-3.6,25.714H403.433z"/>
</g>
<g>
	<path fill="#429398" d="M371.767,595.59c-1.177-9.465-2.166-18.929-3.08-28.394c-0.936-9.464-1.795-18.929-2.48-28.393
		c-0.363-4.732-0.623-9.465-1.026-14.197c-0.429-4.732-1.059-9.464-1.513-14.196c-0.968-9.465,0.027-18.929,1.759-28.394
		l-0.351,1.918l0.386-2.633l0.036-0.248l0.026-0.135l0.05-0.22l0.097-0.367c0.065-0.226,0.133-0.433,0.202-0.633
		c0.139-0.396,0.288-0.762,0.446-1.115c0.312-0.707,0.675-1.355,1.075-1.969c0.801-1.223,1.726-2.315,2.762-3.239
		c2.076-1.854,4.494-3.005,6.807-3.558c2.329-0.548,4.553-0.575,6.618-0.27c2.067,0.301,3.987,0.921,5.773,1.791l-0.039,1.799
		c-1.731,0.8-3.343,1.592-4.753,2.455c-1.404,0.873-2.608,1.799-3.451,2.789c-0.854,0.974-1.338,1.959-1.508,2.822
		c-0.086,0.433-0.122,0.83-0.08,1.196c0.023,0.181,0.056,0.35,0.098,0.481c0.022,0.064,0.051,0.123,0.086,0.154
		c0.019,0.015,0.038,0.022,0.062,0.012c0.012-0.006,0.024-0.017,0.039-0.042c0.008-0.015,0.015-0.027,0.024-0.057l0.016-0.053
		l0.009-0.046l0.018-0.12l0.035-0.715c1.731,9.465,2.727,18.929,1.759,28.394c-0.454,4.732-1.084,9.464-1.513,14.196
		c-0.403,4.732-0.663,9.465-1.026,14.197c-0.686,9.464-1.545,18.929-2.48,28.393c-0.914,9.465-1.903,18.929-3.08,28.394H371.767z"/>
</g>
<g>
	<path fill="#429398" d="M338.1,602.654c-1.423-12.136-2.496-24.271-3.6-36.407c-1.074-12.136-1.974-24.271-2.7-36.407
		c-0.357-6.068-1.135-12.136-1.71-18.204c-0.58-6.067-0.627-12.136-0.09-18.203c0.265-3.034,0.604-6.068,1.048-9.102l0.878-5.655
		c0.738-2.968,2.273-5.232,4.082-6.984c1.816-1.734,3.869-2.84,5.836-3.512c1.976-0.678,3.895-0.943,5.719-1.002
		c3.655-0.069,6.982,0.644,10.092,1.922l0.025,1.801c-2.949,1.384-5.716,2.662-7.919,4.206c-1.098,0.751-2.036,1.568-2.711,2.37
		c-0.677,0.808-1.063,1.599-1.159,2.226c-0.102,0.598,0.059,1.154,0.317,1.188c0.035-0.012,0.073-0.025,0.113-0.139
		c0.01-0.03,0.021-0.065,0.03-0.138c0.004-0.043,0.011-0.056,0.011-0.236c0.007,0.38,0.006,0.125,0.009,0.22l0.006,0.035
		l0.051,0.284c0.071,0.38,0.122,0.759,0.181,1.138l0.344,2.276c0.444,3.033,0.783,6.067,1.048,9.102
		c0.537,6.067,0.49,12.136-0.09,18.203c-0.575,6.068-1.353,12.136-1.71,18.204c-0.727,12.136-1.626,24.271-2.7,36.407
		c-1.104,12.136-2.177,24.271-3.6,36.407H338.1z"/>
</g>
<g>
	<path fill="#429398" d="M301.1,603.077c-1.166-10.229-2.151-20.46-3.057-30.689c-0.931-10.23-1.78-20.46-2.468-30.689l-1.01-15.346
		c-0.408-5.114-1.025-10.229-1.501-15.345c-0.479-5.114-0.572-10.229-0.263-15.345c0.342-5.114,0.935-10.229,1.776-15.345
		l0.085,1.125l0.026,0.133l0.013,0.049l0.019,0.057c0.012,0.032,0.02,0.042,0.029,0.06c0.017,0.023,0.03,0.033,0.043,0.038
		c0.024,0.007,0.042-0.01,0.059-0.03c0.032-0.046,0.053-0.12,0.066-0.203c0.027-0.168,0.026-0.374,0.003-0.589
		c-0.031-0.442-0.14-0.941-0.353-1.445c-0.399-1.027-1.188-2.147-2.345-3.191c-1.145-1.067-2.64-2.029-4.318-2.927
		c-1.685-0.883-3.556-1.686-5.545-2.498l-0.056-1.799c2.019-0.932,4.169-1.594,6.459-1.935c2.291-0.346,4.728-0.354,7.279,0.143
		c2.534,0.514,5.197,1.589,7.587,3.454c1.183,0.937,2.296,2.046,3.262,3.345c0.476,0.654,0.916,1.352,1.317,2.113
		c0.2,0.382,0.391,0.78,0.571,1.213c0.09,0.22,0.178,0.443,0.265,0.693l0.131,0.403l0.068,0.244l0.037,0.148l0.055,0.274
		l-0.546-2.717l0.632,3.842c0.841,5.115,1.434,10.23,1.776,15.345c0.309,5.115,0.215,10.23-0.264,15.345
		c-0.476,5.115-1.093,10.23-1.501,15.345l-1.01,15.346c-0.688,10.229-1.537,20.459-2.468,30.689
		c-0.906,10.229-1.892,20.46-3.057,30.689H301.1z"/>
</g>
<g>
	<path fill="#429398" d="M181.34,586.245c5.303,1.769,10.707,3.321,16.112,4.784c5.403,1.483,10.831,2.859,16.279,4.13
		c10.894,2.55,21.844,4.772,32.848,6.542c10.99,1.833,22.026,3.254,33.073,4.213c11.034,1.047,22.085,1.633,33.102,1.682
		c11.018,0.069,22.001-0.731,32.831-2.054c10.835-1.293,21.56-2.677,32.28-4.232c10.721-1.568,21.395-3.554,32.063-6.079
		c10.689-2.495,21.312-5.594,32.289-8.933l0.898,1.561c-8.511,7.882-18.406,14.19-28.864,19.335
		c-10.479,5.121-21.577,9.018-32.919,11.779c-11.345,2.775-22.98,4.172-34.581,4.352c-11.608,0.15-23.143-0.485-34.59-1.341
		c-11.451-0.877-22.817-2.309-34.075-4.202c-11.246-1.983-22.378-4.43-33.381-7.278c-10.988-2.916-21.856-6.19-32.551-9.928
		c-10.693-3.749-21.236-7.85-31.495-12.664L181.34,586.245z"/>
</g>
<g>
	<path fill="#429398" d="M141.83,305.063c-1.115-1.915-1.407-4.028-1.122-6.124c0.299-2.087,1.238-4.016,2.444-5.646
		c2.454-3.274,5.778-5.551,9.155-7.448c1.703-0.942,3.45-1.781,5.222-2.544c1.747-0.772,3.631-1.443,5.292-2.082
		c3.34-1.329,6.593-2.988,8.869-5.256c1.128-1.132,1.949-2.393,2.392-3.779c0.452-1.384,0.547-2.923,0.418-4.58
		c-0.251-3.331-1.356-6.975-1.738-11.103c-0.186-2.063-0.168-4.28,0.302-6.505c0.232-1.109,0.574-2.211,1.02-3.266
		c0.223-0.528,0.471-1.044,0.741-1.546l0.369-0.666l0.422-0.71c2.224-3.623,5.102-6.636,8.189-9.231
		c6.219-5.174,13.206-8.846,20.251-12.031c7.067-3.167,14.302-5.728,21.543-8.073c6.676-2.142,13.016-5.417,19.083-9.261
		c3.029-1.924,5.979-3.999,8.842-6.186c1.431-1.094,2.84-2.217,4.218-3.366l2.039-1.739c0.651-0.57,1.364-1.208,1.898-1.716
		l-1.885,5.246c-0.047-0.35-0.041-0.349-0.055-0.492l-0.018-0.288c-0.008-0.181-0.009-0.341-0.007-0.502
		c0.005-0.318,0.026-0.621,0.063-0.923c0.072-0.602,0.207-1.201,0.409-1.796c0.401-1.189,1.115-2.354,1.996-3.246
		c0.876-0.896,1.866-1.524,2.762-1.934c0.909-0.42,1.739-0.649,2.499-0.803c1.519-0.295,2.767-0.296,3.915-0.244
		c1.137,0.064,2.175,0.205,3.154,0.384c3.896,0.743,7.122,1.92,10.36,3.198c3.086,1.234,6.237,2.666,9.242,4.227
		c1.503,0.776,2.979,1.592,4.344,2.338c1.356,0.741,2.605,1.39,3.417,1.664c0.834,0.273,1.148,0.289,1.952,0.241
		c0.778-0.059,1.933-0.308,3.191-0.684c2.845-0.85,4.675-1.609,6.966-3.076c2.24-1.408,4.555-3.241,7.096-5.242
		c2.565-1.988,5.335-4.202,8.994-6.136c1.83-0.957,3.915-1.814,6.255-2.364c2.331-0.552,4.913-0.722,7.387-0.425
		c2.482,0.285,4.805,1.005,6.857,1.915c0.519,0.226,1.011,0.469,1.503,0.716l0.477,0.232c0.204,0.104,0.297,0.139,0.425,0.197
		c0.497,0.223,1.117,0.491,1.68,0.698c4.608,1.756,9.577,2.082,15.6,1.838c5.973-0.198,13.096-0.931,21.117,0.698
		c3.508,0.698,7.286,1.784,11.025,3.524c3.732,1.729,7.577,4.258,10.671,7.706c3.106,3.431,5.288,7.546,6.586,11.48
		c0.334,0.987,0.618,1.966,0.87,2.937l0.287,1.134c0.01,0.003-0.021-0.063,0.004,0.005l0.052,0.156
		c0.134,0.409,0.314,0.747,0.653,1.159c0.651,0.804,2.151,1.855,4.21,2.622c2.048,0.768,4.537,1.348,7.093,1.632
		c0.639,0.073,1.281,0.128,1.918,0.167l0.997,0.045l1.244,0.038c1.713,0.055,3.543,0.149,5.416,0.367
		c3.742,0.431,7.736,1.226,11.764,3.034c2.007,0.901,4.004,2.088,5.837,3.593c1.833,1.501,3.481,3.326,4.779,5.326
		c2.638,4.028,3.734,8.508,4.011,12.517l0.07,1.384l0.04,1.105c0.031,0.717,0.072,1.438,0.125,2.137
		c0.11,1.395,0.266,2.737,0.474,3.9c0.204,1.158,0.507,2.11,0.702,2.559c0.228,0.44,0.07,0.497,0.994,1.116
		c0.887,0.571,2.747,1.392,4.544,2.597c0.45,0.3,0.896,0.622,1.329,0.96l0.322,0.257l0.159,0.13c0.07,0.055-0.004,0.001,0.022,0.022
		l0.058,0.049l0.347,0.3c0.388,0.339,0.861,0.682,1.347,1.007c0.986,0.654,2.166,1.245,3.582,1.873
		c1.407,0.64,3.074,1.293,4.867,2.342c1.781,1.025,3.663,2.549,4.979,4.397c1.344,1.833,2.131,3.824,2.605,5.69
		c0.854,3.469,1.325,7.219,0.589,11.04c-0.353,1.894-1.095,3.733-2.061,5.333c-0.964,1.608-2.151,2.961-3.284,4.144
		c-1.113,1.185-2.255,2.227-2.764,3.201c-0.25,0.482-0.361,0.944-0.276,1.531c0.08,0.581,0.352,1.239,0.724,1.873l-1.406,1.124
		c-0.614-0.614-1.224-1.317-1.63-2.261c-0.421-0.929-0.522-2.136-0.277-3.171c0.232-1.042,0.67-1.905,1.091-2.679
		c0.424-0.778,0.876-1.462,1.281-2.134c0.82-1.334,1.493-2.596,1.914-3.868c0.428-1.269,0.599-2.532,0.605-3.808
		c0.003-2.546-0.813-5.213-1.985-7.764c-0.55-1.147-1.196-2.066-1.885-2.699c-0.695-0.638-1.448-1.039-2.515-1.435
		c-2.091-0.808-5.553-1.34-9.258-2.996c-0.926-0.417-1.824-0.895-2.743-1.469l-0.623-0.399l-0.063-0.04
		c-0.014-0.008-0.128-0.091-0.099-0.066l-0.081-0.047l-0.163-0.093c-0.218-0.121-0.441-0.234-0.676-0.343
		c-0.937-0.452-2.076-0.762-4.053-1.59c-0.97-0.416-2.152-1.036-3.285-1.908c-1.141-0.865-2.165-1.963-2.949-3.058
		c-1.57-2.218-2.359-4.312-2.989-6.223c-0.615-1.919-1.017-3.724-1.344-5.487c-0.163-0.882-0.306-1.745-0.437-2.614l-0.184-1.276
		c-0.058-0.437-0.11-0.713-0.157-0.997c-0.439-2.306-1.243-4.126-2.273-5.348c-1.03-1.232-2.354-2.052-4.235-2.727
		c-1.868-0.661-4.234-1.019-6.836-1.104c-1.307-0.042-2.667-0.035-4.144,0.003l-1.147,0.033l-1.395,0.022
		c-0.957,0.002-1.907-0.022-2.859-0.071c-3.798-0.211-7.643-0.741-11.637-2.034c-1.994-0.648-4.029-1.487-6.066-2.644
		c-2.033-1.151-4.063-2.664-5.885-4.608c-1.818-1.934-3.384-4.333-4.396-6.901c-0.131-0.32-0.244-0.643-0.357-0.967
		c-0.109-0.309-0.244-0.76-0.354-1.136l-0.317-1.181c-0.158-0.57-0.327-1.121-0.514-1.641c-0.757-2.094-1.659-3.712-2.839-5.022
		c-1.168-1.314-2.681-2.476-4.704-3.471c-2.027-1.002-4.394-1.776-7.105-2.47c-4.493-1.183-10.266-1.105-17.01-1.256
		c-3.369-0.088-7.009-0.29-10.755-0.93c-3.741-0.632-7.572-1.737-11.139-3.359c-0.909-0.407-1.734-0.816-2.662-1.309l-1.854-1.032
		c-0.833-0.44-1.58-0.716-2.263-0.852c-0.688-0.137-1.338-0.163-2.125-0.046c-0.783,0.111-1.696,0.416-2.718,0.883
		c-2.05,0.936-4.421,2.559-6.963,4.377c-2.562,1.819-5.323,3.873-8.562,5.741c-1.617,0.932-3.362,1.813-5.251,2.55
		c-1.03,0.406-1.967,0.705-2.774,0.946c-0.844,0.255-1.711,0.501-2.62,0.73c-1.817,0.448-3.801,0.876-6.214,0.958
		c-2.383,0.118-5.283-0.423-7.409-1.34c-2.16-0.896-3.683-1.849-5.098-2.679c-1.402-0.84-2.688-1.62-3.991-2.36
		c-2.6-1.483-5.211-2.803-8.001-4.051c-2.638-1.183-5.417-2.26-7.778-2.798c-0.584-0.135-1.128-0.224-1.581-0.272
		c-0.441-0.048-0.801-0.034-0.852-0.036c-0.084-0.015,0.336-0.032,1.011-0.705c0.318-0.326,0.602-0.797,0.738-1.235
		c0.072-0.219,0.114-0.428,0.136-0.634c0.011-0.104,0.017-0.208,0.017-0.327l-0.005-0.203l-0.01-0.139l-0.04-0.343l0.385,3.295
		l-2.27,1.951c-0.866,0.744-1.587,1.321-2.38,1.952c-0.776,0.615-1.556,1.215-2.34,1.807c-1.569,1.181-3.157,2.325-4.768,3.436
		c-3.222,2.22-6.531,4.313-9.945,6.255c-6.813,3.864-14.105,7.211-21.868,9.293c-7.158,1.94-14.221,4.075-21.043,6.654
		c-6.789,2.604-13.412,5.673-19.013,9.829c-2.783,2.075-5.282,4.454-7.154,7.146l-0.328,0.482l-0.347,0.548
		c-0.194,0.315-0.373,0.636-0.536,0.965c-0.325,0.658-0.584,1.344-0.781,2.064c-0.396,1.438-0.523,3.016-0.468,4.698
		c0.084,3.382,0.988,7.058,1.104,11.247c0.044,2.085-0.186,4.367-1.034,6.52c-0.831,2.16-2.264,4.034-3.875,5.463
		c-3.271,2.859-7.016,4.39-10.691,5.641c-1.882,0.609-3.576,1.09-5.317,1.719c-1.725,0.611-3.418,1.291-5.06,2.062
		c-3.258,1.547-6.404,3.456-8.656,6.091c-1.113,1.312-1.96,2.82-2.307,4.448c-0.174,0.812-0.223,1.649-0.135,2.477
		c0.082,0.81,0.321,1.688,0.653,2.337L141.83,305.063z"/>
</g>
<g>
	<path fill="#429398" d="M242.773,251.776c-0.955-2.944-1.487-6.018-0.748-9.58c0.379-1.762,1.287-3.695,2.939-5.265
		c1.642-1.585,3.896-2.513,5.948-2.871c1.036-0.178,2.039-0.241,3.007-0.24c0.482,0.003,0.958,0.021,1.424,0.052l1.271,0.099
		l4.19,0.243c1.417,0.102,2.852,0.182,4.44,0.359c0.797,0.097,1.637,0.216,2.591,0.42c0.959,0.215,2.041,0.488,3.402,1.138
		c0.68,0.327,1.436,0.764,2.213,1.384c0.777,0.621,1.575,1.433,2.214,2.364c1.315,1.894,1.866,3.904,2.113,5.378
		c0.252,1.509,0.317,2.707,0.347,3.774c0.023,1.07-0.007,2.009-0.041,2.904c-0.063,0.912-0.117,1.671-0.276,2.572l-0.206,0.903
		c-0.064,0.268-0.133,0.531-0.218,0.797c-0.169,0.531-0.335,1.073-0.571,1.604c-0.861,2.143-2.334,4.283-4.207,5.973
		c-1.874,1.695-4.067,2.884-6.118,3.532c-2.065,0.653-3.984,0.838-5.723,0.774c-1.746-0.071-3.319-0.367-4.856-0.784
		c-0.774-0.22-1.528-0.438-2.322-0.711l-2.5-0.8l-0.839-1.593c0.169-0.486,0.397-0.902,0.622-1.35
		c0.24-0.416,0.499-0.811,0.762-1.209c0.528-0.796,1.118-1.482,1.693-2.148c1.163-1.311,2.32-2.412,3.26-3.418
		c0.946-0.999,1.678-1.879,2.092-2.624c0.428-0.743,0.529-1.298,0.559-1.72c0.033-0.423,0.065-0.745,0.303-1.223
		c0.045-0.122,0.125-0.247,0.192-0.387c0.033-0.07,0.067-0.147,0.114-0.217l0.095-0.12c0.213-0.472,0.482-1.099,0.72-1.577
		c0.263-0.495,0.496-0.956,0.696-1.296c0.209-0.342,0.371-0.57,0.523-0.481c0.146,0.062,0.365,0.645,0.931,1.323
		c0.266,0.326,0.598,0.591,0.846,0.737c0.245,0.149,0.41,0.184,0.472,0.159c0.122-0.049-0.135-0.283-0.527-0.506
		c-0.4-0.23-0.936-0.476-1.52-0.719c-1.175-0.498-2.521-1.011-3.88-1.53c-1.358-0.547-2.743-1.103-4.119-1.697
		c-0.371-0.159-0.574-0.27-0.806-0.387c-0.23-0.113-0.455-0.216-0.677-0.313c-0.441-0.188-0.863-0.341-1.249-0.45
		c-0.78-0.227-1.38-0.339-2.026-0.209c-0.653,0.12-1.39,0.639-2.082,1.5c-0.685,0.859-1.248,2.012-1.68,3.256
		c-0.459,1.24-0.775,2.619-1.002,3.961L242.773,251.776z"/>
</g>
<g>
	<path fill="#429398" d="M287.952,284.952c1.816,0.461,3.619,1.009,5.419,1.545l5.335,1.729c1.769,0.562,3.5,1.182,5.172,1.65
		c1.649,0.474,3.295,0.812,4.369,0.699c0.533-0.043,0.863-0.188,1.08-0.36c0.218-0.175,0.402-0.382,0.695-0.711
		c0.586-0.638,1.437-1.788,2.237-3.112c0.879-1.348,1.171-2.215,1.425-3.322c0.239-1.077,0.326-2.246,0.272-3.55
		c-0.066-2.634-1.132-5.593-2.165-9.079c-0.492-1.781-0.958-3.69-1.09-6.213c-0.057-1.274-0.042-2.716,0.298-4.562
		c0.188-0.923,0.442-1.972,0.936-3.131c0.492-1.153,1.224-2.444,2.258-3.629c0.259-0.294,0.531-0.578,0.825-0.849l0.542-0.491
		l0.146-0.096c0.036-0.011,0.335-0.25,0.57-0.421c0.271-0.203,0.408-0.284,0.609-0.415c0.747-0.464,1.442-0.823,2.111-1.118
		c1.337-0.579,2.557-0.951,3.735-1.197c2.346-0.5,4.507-0.636,6.637-0.557c4.244,0.196,8.302,1.058,12.366,3.115l0.219,1.787
		c-3.217,3.034-6.395,5.272-9.248,7.374c-1.413,1.046-2.764,2.019-3.808,2.94c-0.516,0.463-0.955,0.889-1.201,1.243
		c-0.122,0.172-0.196,0.317-0.181,0.409c0.02,0.011-0.028,0.065,0.068,0.012c0.06-0.024,0.179-0.118,0.047,0.027l-0.11,0.135
		c0.058-0.051-0.147,0.14,0.126-0.111l0.025-0.019l0.05-0.038l0.1-0.079c0.128-0.111,0.251-0.22,0.367-0.334
		c0.455-0.471,0.744-0.943,0.913-1.238c0.171-0.299,0.214-0.448,0.26-0.464c0.065-0.027,0.062,0.377,0.079,0.937
		c0.029,1.149,0.071,2.885,0.03,4.749c-0.109,3.788-0.335,8.198-1.201,12.892c-0.448,2.347-1.202,4.793-2.385,7.107
		c-1.15,2.298-2.956,4.501-4.49,5.921c-1.581,1.458-3.288,3.018-5.827,4.338c-1.266,0.639-2.796,1.17-4.385,1.34
		c-1.59,0.181-3.125-0.007-4.402-0.351c-2.559-0.737-4.329-1.861-6.006-2.923c-1.657-1.088-3.182-2.172-4.674-3.303l-8.927-6.653
		L287.952,284.952z"/>
</g>
<g>
	<path fill="#429398" d="M399.073,278.178c-0.399,1.812-0.692,3.565-0.618,5.098c0.055,0.763,0.156,1.439,0.395,1.937
		c0.229,0.499,0.572,0.76,0.869,0.767c0.287,0.016,0.499-0.136,0.776-0.221c0.267-0.085,0.63-0.122,1.097-0.176
		c0.927-0.069,2.197-0.182,3.553-0.404c1.3-0.205,2.446-0.996,3.156-1.686c0.362-0.331,0.635-0.584,0.873-0.683
		c0.241-0.101,0.462-0.048,0.726,0.096c0.523,0.273,1.193,0.889,2.457,1.184c0.64,0.141,1.405,0.185,2.312-0.066
		c0.945-0.262,1.866-0.802,2.838-2.003l1.654-0.709c1.667,0.423,2.87,1.671,3.719,3.17c0.804,1.512,1.103,3.291,0.987,5.026
		c-0.244,3.5-2.175,6.724-4.667,8.81c-1.247,1.058-2.648,1.832-4.081,2.29c-1.435,0.465-2.891,0.596-4.274,0.523
		c-2.786-0.186-5.198-1.038-7.401-1.653c-2.141-0.649-4.37-1.465-6.687-2.945c-1.143-0.77-2.324-1.71-3.362-2.988
		c-1.03-1.268-1.858-2.909-2.158-4.562c-0.293-1.661-0.092-3.2,0.303-4.455c0.407-1.261,0.96-2.305,1.622-3.198
		c1.302-1.782,2.819-3.093,4.433-4.175L399.073,278.178z"/>
</g>
<g>
	<path fill="#429398" d="M347.861,231.742c-0.084-3.016-0.004-5.814,0.016-8.67c0.04-1.418,0.088-2.837,0.224-4.308
		c0.177-1.482,0.359-2.949,1.02-4.864c0.17-0.49,0.375-1.019,0.663-1.642c0.293-0.617,0.655-1.343,1.358-2.192
		c0.687-0.827,1.78-1.903,3.583-2.682c0.887-0.385,1.938-0.647,2.963-0.743c1.028-0.099,2.019-0.038,2.884,0.104
		c0.42,0.076,0.831,0.172,1.19,0.274c0.076,0.02,0.227,0.069,0.24,0.066l0.067,0.001c0.039-0.002,0.102,0.006,0.12,0
		c0.091-0.017,0.25-0.02,0.381-0.012c0.296,0.029,0.554,0.054,1.371,0.385c0.411,0.17,1.019,0.454,1.701,0.896
		c0.679,0.434,1.325,0.978,1.762,1.433c0.882,0.924,1.157,1.474,1.387,1.951c0.397,0.927,0.487,1.625,0.545,2.437
		c0.044,0.795,0.027,1.616-0.085,2.521c-0.253,1.83-0.675,3.818-1.879,6.474l-1.41,1.118c-2.867,0.558-4.937,0.435-6.815,0.137
		c-0.926-0.158-1.751-0.405-2.513-0.679c-0.749-0.256-1.456-0.635-1.893-0.755c-0.189-0.043-0.342-0.013,0.05,0.456
		c0.19,0.228,0.572,0.563,0.967,0.822c0.398,0.265,0.703,0.404,0.807,0.442c0.2,0.07-0.174-0.124-0.504-0.333l-0.557-0.372
		c-0.06-0.036-0.074-0.06-0.113-0.092l-0.049-0.045c-0.025-0.018,0.085,0.018,0.122,0.022c0.203,0.041,0.454,0.091,0.712,0.122
		c1.052,0.15,2.707,0,3.867-0.585c1.167-0.565,1.694-1.255,1.892-1.628c0.211-0.395,0.145-0.603,0.045-0.679
		c-0.106-0.081-0.259-0.043-0.427,0.044c-0.68,0.406-1.576,1.396-2.473,2.365c-0.93,0.985-1.914,2.038-2.929,3.081
		c-2.083,2.068-4.198,4.157-6.679,5.931L347.861,231.742z"/>
</g>
</svg>
